<svg width="68" height="69" viewBox="0 0 68 69" fill="none" xmlns="http://www.w3.org/2000/svg">
<path d="M34 25.999C32.3988 25.9996 30.8338 26.4767 29.5028 27.3699C28.1718 28.2632 27.1345 29.5325 26.5222 31.0174C25.9099 32.5023 25.75 34.1361 26.0627 35.7122C26.3755 37.2883 27.1468 38.7359 28.2792 39.872C29.4116 41.0082 30.8542 41.7818 32.4247 42.0951C33.9951 42.4084 35.6228 42.2473 37.102 41.6322C38.5813 41.017 39.8455 39.9755 40.735 38.6393C41.6245 37.303 42.0993 35.732 42.0993 34.125C42.0977 31.9698 41.2437 29.9034 39.7251 28.3797C38.2064 26.8561 36.1473 25.9998 34 25.999ZM52.9292 19.7529C52.517 18.7045 51.8946 17.7523 51.1006 16.9554C50.3066 16.1585 49.3579 15.5338 48.3134 15.1201C45.1259 13.8572 37.5366 14.1405 34 14.1405C30.4634 14.1405 22.8817 13.8465 19.6851 15.1201C18.6406 15.5338 17.6919 16.1585 16.8979 16.9554C16.1038 17.7523 15.4815 18.7045 15.0693 19.7529C13.8125 22.9521 14.0933 30.5769 14.0933 34.1235C14.0933 37.67 13.8125 45.2857 15.0754 48.4956C15.4875 49.5439 16.1099 50.4961 16.9039 51.2931C17.6979 52.09 18.6466 52.7147 19.6912 53.1284C22.8787 54.3913 30.4679 54.1079 34.0061 54.1079C37.5442 54.1079 45.1229 54.402 48.3195 53.1284C49.364 52.7147 50.3127 52.09 51.1067 51.2931C51.9007 50.4961 52.5231 49.5439 52.9353 48.4956C54.2027 45.2964 53.9113 37.6716 53.9113 34.125C53.9113 30.5784 54.2027 22.9643 52.9353 19.7544L52.9292 19.7529ZM34 46.6172C31.5383 46.6172 29.1319 45.8845 27.0851 44.5119C25.0383 43.1392 23.443 41.1882 22.501 38.9056C21.559 36.6229 21.3125 34.1111 21.7927 31.6879C22.273 29.2646 23.4584 27.0388 25.199 25.2917C26.9397 23.5446 29.1575 22.3549 31.5718 21.8728C33.9862 21.3908 36.4888 21.6382 38.763 22.5837C41.0373 23.5292 42.9812 25.1304 44.3488 27.1847C45.7165 29.239 46.4464 31.6543 46.4464 34.125C46.4484 35.7661 46.1279 37.3914 45.5031 38.9079C44.8783 40.4244 43.9616 41.8024 42.8054 42.9628C41.6493 44.1232 40.2764 45.0433 38.7654 45.6704C37.2544 46.2974 35.6351 46.6192 34 46.6172ZM46.9595 24.0246C46.3848 24.0249 45.823 23.8542 45.345 23.5339C44.8671 23.2137 44.4945 22.7584 44.2743 22.2257C44.0542 21.6929 43.9965 21.1066 44.1084 20.5408C44.2203 19.9751 44.4969 19.4554 44.9031 19.0475C45.3094 18.6395 45.827 18.3617 46.3906 18.249C46.9542 18.1364 47.5384 18.1941 48.0694 18.4147C48.6003 18.6354 49.0541 19.0091 49.3734 19.4886C49.6927 19.9682 49.8631 20.532 49.8631 21.1087C49.8647 21.4918 49.791 21.8713 49.6461 22.2257C49.5012 22.58 49.288 22.9021 49.0188 23.1736C48.7496 23.4451 48.4297 23.6605 48.0773 23.8076C47.725 23.9547 47.3471 24.0305 46.9655 24.0307L46.9595 24.0246ZM60.7143 0H7.28571C5.35342 0 3.50027 0.770422 2.13394 2.14178C0.7676 3.51314 0 5.3731 0 7.3125L0 60.9375C0 62.8769 0.7676 64.7369 2.13394 66.1082C3.50027 67.4796 5.35342 68.25 7.28571 68.25H60.7143C62.6466 68.25 64.4997 67.4796 65.8661 66.1082C67.2324 64.7369 68 62.8769 68 60.9375V7.3125C68 5.3731 67.2324 3.51314 65.8661 2.14178C64.4997 0.770422 62.6466 0 60.7143 0ZM58.1157 44.1797C57.9199 48.0843 57.032 51.544 54.1921 54.3867C51.3521 57.2295 47.9081 58.1389 44.0224 58.3248C40.0138 58.5518 27.9954 58.5518 23.9867 58.3248C20.0964 58.1283 16.6615 57.2355 13.8171 54.3867C10.9726 51.5379 10.0786 48.0766 9.89339 44.1797C9.66723 40.1548 9.66723 28.0907 9.89339 24.0703C10.0892 20.1657 10.9665 16.706 13.8171 13.8633C16.6676 11.0205 20.1116 10.1217 23.9867 9.93586C27.9954 9.70887 40.0138 9.70887 44.0224 9.93586C47.9127 10.1324 51.3582 11.0251 54.1921 13.8739C57.0259 16.7228 57.9305 20.184 58.1157 24.0886C58.3419 28.0983 58.3419 40.1517 58.1157 44.1797Z" fill="#BB918C"/>
</svg>
