<svg width="42" height="42" viewBox="0 0 42 42" fill="none" xmlns="http://www.w3.org/2000/svg">
<path d="M21 15.9994C20.011 15.9997 19.0444 16.2933 18.2223 16.843C17.4002 17.3927 16.7596 18.1739 16.3814 19.0876C16.0032 20.0014 15.9044 21.0068 16.0976 21.9767C16.2907 22.9466 16.7671 23.8375 17.4666 24.5366C18.166 25.2358 19.057 25.7119 20.027 25.9047C20.997 26.0975 22.0023 25.9983 22.916 25.6198C23.8296 25.2413 24.6105 24.6003 25.1599 23.778C25.7093 22.9557 26.0025 21.989 26.0025 21C26.0015 19.6737 25.4741 18.4021 24.5361 17.4645C23.5981 16.5268 22.3263 15.9999 21 15.9994ZM32.6916 12.1556C32.437 11.5105 32.0526 10.9245 31.5621 10.4341C31.0717 9.94368 30.4858 9.55926 29.8406 9.30469C27.8719 8.5275 23.1844 8.70187 21 8.70187C18.8156 8.70187 14.1328 8.52094 12.1584 9.30469C11.5133 9.55926 10.9273 9.94368 10.4369 10.4341C9.94649 10.9245 9.56207 11.5105 9.3075 12.1556C8.53125 14.1244 8.70469 18.8166 8.70469 20.9991C8.70469 23.1816 8.53125 27.8681 9.31125 29.8434C9.56582 30.4886 9.95024 31.0745 10.4407 31.565C10.9311 32.0554 11.517 32.4398 12.1622 32.6944C14.1309 33.4716 18.8184 33.2972 21.0037 33.2972C23.1891 33.2972 27.87 33.4781 29.8444 32.6944C30.4895 32.4398 31.0755 32.0554 31.5659 31.565C32.0563 31.0745 32.4407 30.4886 32.6953 29.8434C33.4781 27.8747 33.2981 23.1825 33.2981 21C33.2981 18.8175 33.4781 14.1319 32.6953 12.1566L32.6916 12.1556ZM21 28.6875C19.4796 28.6875 17.9933 28.2366 16.7291 27.3919C15.4649 26.5472 14.4795 25.3466 13.8977 23.9419C13.3158 22.5372 13.1636 20.9915 13.4602 19.5002C13.7568 18.009 14.489 16.6392 15.5641 15.5641C16.6392 14.489 18.009 13.7568 19.5002 13.4602C20.9915 13.1636 22.5372 13.3158 23.9419 13.8977C25.3466 14.4795 26.5472 15.4649 27.3919 16.7291C28.2366 17.9933 28.6875 19.4796 28.6875 21C28.6887 22.0099 28.4907 23.0101 28.1048 23.9433C27.7189 24.8766 27.1527 25.7245 26.4386 26.4386C25.7245 27.1527 24.8766 27.7189 23.9433 28.1048C23.0101 28.4907 22.0099 28.6887 21 28.6875ZM29.0044 14.7844C28.6494 14.7846 28.3024 14.6795 28.0072 14.4824C27.712 14.2854 27.4819 14.0052 27.3459 13.6773C27.21 13.3495 27.1743 12.9886 27.2434 12.6405C27.3126 12.2924 27.4834 11.9726 27.7343 11.7215C27.9852 11.4705 28.3049 11.2995 28.653 11.2302C29.0011 11.1609 29.362 11.1963 29.6899 11.3321C30.0178 11.4679 30.2981 11.6979 30.4953 11.993C30.6926 12.2881 30.7978 12.6351 30.7978 12.99C30.7988 13.2257 30.7532 13.4593 30.6638 13.6773C30.5743 13.8954 30.4426 14.0936 30.2763 14.2607C30.1101 14.4277 29.9124 14.5603 29.6948 14.6508C29.4772 14.7413 29.2438 14.788 29.0081 14.7881L29.0044 14.7844ZM37.5 0H4.5C3.30653 0 2.16193 0.474106 1.31802 1.31802C0.474106 2.16193 0 3.30653 0 4.5L0 37.5C0 38.6935 0.474106 39.8381 1.31802 40.682C2.16193 41.5259 3.30653 42 4.5 42H37.5C38.6935 42 39.8381 41.5259 40.682 40.682C41.5259 39.8381 42 38.6935 42 37.5V4.5C42 3.30653 41.5259 2.16193 40.682 1.31802C39.8381 0.474106 38.6935 0 37.5 0ZM35.895 27.1875C35.7741 29.5903 35.2256 31.7194 33.4716 33.4688C31.7175 35.2181 29.5903 35.7778 27.1903 35.8922C24.7144 36.0319 17.2913 36.0319 14.8153 35.8922C12.4125 35.7713 10.2909 35.2219 8.53406 33.4688C6.77719 31.7156 6.225 29.5856 6.11063 27.1875C5.97094 24.7106 5.97094 17.2866 6.11063 14.8125C6.23156 12.4097 6.77344 10.2806 8.53406 8.53125C10.2947 6.78188 12.4219 6.22875 14.8153 6.11438C17.2913 5.97469 24.7144 5.97469 27.1903 6.11438C29.5931 6.23531 31.7213 6.78469 33.4716 8.53781C35.2219 10.2909 35.7806 12.4209 35.895 14.8237C36.0347 17.2913 36.0347 24.7087 35.895 27.1875Z" fill="#BB918C"/>
</svg>
