<svg width="60" height="81" viewBox="0 0 60 81" fill="none" xmlns="http://www.w3.org/2000/svg">
<path d="M33.7031 79.1799C41.7187 68.9969 60 44.3166 60 30.4538C60 13.6408 46.5625 0 30 0C13.4375 0 0 13.6408 0 30.4538C0 44.3166 18.2812 68.9969 26.2969 79.1799C28.2188 81.6067 31.7812 81.6067 33.7031 79.1799ZM30 20.3025C32.6522 20.3025 35.1957 21.372 37.0711 23.2758C38.9464 25.1795 40 27.7615 40 30.4538C40 33.1461 38.9464 35.7281 37.0711 37.6318C35.1957 39.5356 32.6522 40.6051 30 40.6051C27.3478 40.6051 24.8043 39.5356 22.9289 37.6318C21.0536 35.7281 20 33.1461 20 30.4538C20 27.7615 21.0536 25.1795 22.9289 23.2758C24.8043 21.372 27.3478 20.3025 30 20.3025Z" fill="white"/>
</svg>
