<svg width="54" height="55" viewBox="0 0 54 55" fill="none" xmlns="http://www.w3.org/2000/svg">
<path d="M17.391 2.7218C16.579 0.760163 14.438 -0.283932 12.392 0.275028L3.11119 2.80617C1.27612 3.31239 0 4.97873 0 6.87708C0 32.9689 21.1561 54.125 47.2479 54.125C49.1463 54.125 50.8126 52.8489 51.3188 51.0138L53.85 41.733C54.4089 39.687 53.3648 37.546 51.4032 36.734L41.2786 32.5154C39.5596 31.7983 37.5663 32.2939 36.3957 33.7388L32.1349 38.9382C24.7102 35.4262 18.6988 29.4148 15.1868 21.9901L20.3862 17.7399C21.8311 16.5587 22.3267 14.576 21.6096 12.8569L17.391 2.73234V2.7218Z" fill="#BB918C"/>
</svg>
