<svg width="35" height="35" viewBox="0 0 35 35" fill="none" xmlns="http://www.w3.org/2000/svg">
<path d="M11.272 1.68311C10.7456 0.41168 9.35799 -0.265049 8.03187 0.0972402L2.01651 1.73779C0.827112 2.0659 0 3.14593 0 4.37635C0 21.2877 13.7123 35 30.6236 35C31.8541 35 32.9341 34.1729 33.2622 32.9835L34.9028 26.9681C35.265 25.642 34.5883 24.2544 33.3169 23.728L26.7547 20.9938C25.6405 20.529 24.3485 20.8502 23.5898 21.7867L20.8282 25.1567C16.0159 22.8804 12.1196 18.9841 9.84332 14.1718L13.2133 11.4171C14.1498 10.6515 14.471 9.36636 14.0062 8.25215L11.272 1.68994V1.68311Z" fill="#BB918C"/>
</svg>
